# xmcd
#
# Track frame offsets:
#  151
#  11398
#  26384
#  43739
#  56768
#  76971
#  91666
#  109062
#  129019
#  156644
#  175131
#  189135
#  204911
#
# Disc length: 2948 seconds
#
# Revision: 0
# Processed by: cddbd v1.5.1PL0 Copyright (c) Steve Scherf et al.
# Submitted via: Collectorz.com_Music_Collector 6.9
#
DISCID=930b820d
DTITLE=Various Artist - Blues Treasures
DYEAR=2003
DGENRE=Blues
TTITLE0=Between Stations Band - Hurry Hurry Blues
TTITLE1=Between Stations Band - Luck For So Long
TTITLE2=Steve Burnside - The Blues Crept Up On Me
TTITLE3=Steve Burnside - Midnight Is A Lonely Hour
TTITLE4=Junkyard Dogs - Blue Light Boogie
TTITLE5=Junkyard Dogs - Too Much Junk
TTITLE6=Gil Hicks - Cables Out
TTITLE7=Donna Rose - Let It Slide
TTITLE8=Donna Rose - Still Get the Blues Over You
TTITLE9=Doug Rott - With Those High Heels On
TTITLE10=Doug Rott - Only Thing
TTITLE11=Steve Rowe - Jumpin' and Jivin'
TTITLE12=Steve Rowe - Yes Honey
EXTD=
EXTT0=
EXTT1=
EXTT2=
EXTT3=
EXTT4=
EXTT5=
EXTT6=
EXTT7=
EXTT8=
EXTT9=
EXTT10=
EXTT11=
EXTT12=
PLAYORDER=
